PathFileType	4	(X/Y/Z)	G:\TennisProject\Miami_Dimitrov_Sinner_masked_Sports2D\Miami_Dimitrov_Sinner_masked_Sports2D_m_person03.trc
DataRate	CameraRate	NumFrames	NumMarkers	Units	OrigDataRate	OrigDataStartFrame	OrigNumFrames
25	25	6	22	m	25	311	499
Frame#	Time	Hip			RHip			RKnee			RAnkle			RBigToe			RSmallToe			RHeel			LHip			LKnee			LAnkle			LBigToe			LSmallToe			LHeel			Neck			Head			Nose			RShoulder			RElbow			RWrist			LShoulder			LElbow			LWrist		
		X1	Y1	Z1	X2	Y2	Z2	X3	Y3	Z3	X4	Y4	Z4	X5	Y5	Z5	X6	Y6	Z6	X7	Y7	Z7	X8	Y8	Z8	X9	Y9	Z9	X10	Y10	Z10	X11	Y11	Z11	X12	Y12	Z12	X13	Y13	Z13	X14	Y14	Z14	X15	Y15	Z15	X16	Y16	Z16	X17	Y17	Z17	X18	Y18	Z18	X19	Y19	Z19	X20	Y20	Z20	X21	Y21	Z21	X22	Y22	Z22
311	12.44	9.529498555999453	2.0537565932191693	0.0	9.429600718889137	2.045411934710248	0.0	9.41106589984818	1.6867616234957397	0.0	9.413685432787169	1.3166578762058316	0.0	9.370854614590614	1.2295144605313122	0.0	9.332244007708692	1.2396346509323768	0.0	9.423807089888015	1.2585660061734145	0.0	9.628847377163892	2.0464896047582495	0.0	9.677606923130702	1.6918834270580512	0.0	9.723838299777697	1.3230829571652043	0.0	9.749268039977558	1.2437905430648895	0.0	9.78733606871443	1.2495684067960686	0.0	9.697647183897596	1.2628886279362666	0.0	9.515500534108236	2.569787911943698	0.0	9.499261714168147	2.797508751708479	0.0	9.500172318621013	2.668571906677364	0.0	9.346220073429244	2.4778123008880946	0.0	9.331454455436356	2.27824438152948	0.0	9.4661219489239	2.1864312731885027	0.0	9.695540138213126	2.4913826082046757	0.0	9.738018745564935	2.288114760508946	0.0	9.61980587152349	2.1720631152587377	0.0
312	12.48	9.528276678463067	2.052707317589423	0.0	9.429031937116681	2.042705974486388	0.0	9.408765643271646	1.685591932750495	0.0	9.410832107779997	1.3197067053278464	0.0	9.380445543897132	1.2340366918016008	0.0	9.33699067101792	1.24313631011172	0.0	9.421616760597022	1.2622196585296146	0.0	9.624274455313675	2.0440590044690197	0.0	9.675667592621604	1.689890870976968	0.0	9.722179003592831	1.3273015011444056	0.0	9.749224219474065	1.2517360897938472	0.0	9.785771005675155	1.258167557430399	0.0	9.692818063705356	1.2709450506553492	0.0	9.513410275693166	2.5689959639859543	0.0	9.497325521534641	2.7953012159928607	0.0	9.496564663247897	2.6679702906842673	0.0	9.346813072977708	2.4771272948527363	0.0	9.329821643091996	2.2781844107281666	0.0	9.464354447521215	2.186760715592289	0.0	9.6914695325496	2.491939661181528	0.0	9.73297452343131	2.287056068971125	0.0	9.612056759297996	2.173506963765365	0.0
313	12.52	9.529458732988125	2.05272305906745	0.0	9.430078224033295	2.0421184713701086	0.0	9.408299092821858	1.684059115259189	0.0	9.408959398035652	1.3206317841063522	0.0	9.384910122436908	1.2322380329176585	0.0	9.337464917493802	1.2383282863626839	0.0	9.420561939936329	1.260644762192827	0.0	9.624245723107242	2.04325778369676	0.0	9.676890726347107	1.6890882976881338	0.0	9.72210148455184	1.3292657947492	0.0	9.750779465769833	1.2445201844129734	0.0	9.789377215116625	1.2502730004549638	0.0	9.682713244757881	1.2674593532543599	0.0	9.512959408083631	2.5685332308125948	0.0	9.496972428591048	2.7944831666813976	0.0	9.494001897558826	2.6683003087086545	0.0	9.34735644690891	2.478900402983972	0.0	9.329186031020448	2.280611261263655	0.0	9.461653443873567	2.184375243688226	0.0	9.692037282893482	2.490416110174821	0.0	9.730816433205629	2.288088364638772	0.0	9.615112990453454	2.1730507171022184	0.0
314	12.56	9.530409467575303	2.052853402012378	0.0	9.430459946470465	2.0424725230464578	0.0	9.408666897964514	1.6838790063130478	0.0	9.408221329211992	1.3199096299067714	0.0	9.383738447002031	1.229223371692752	0.0	9.335529964714057	1.2337050980569004	0.0	9.420347352348038	1.2580137898502655	0.0	9.62689934835871	2.043576534765971	0.0	9.678078471472292	1.6888712219217867	0.0	9.72283629943576	1.3275760498959661	0.0	9.752196877299973	1.236772634061427	0.0	9.791134463905115	1.2418586936548301	0.0	9.679231398036865	1.2609925871428793	0.0	9.514345692842506	2.5686543693721857	0.0	9.497348840300091	2.795055618384285	0.0	9.494611749631352	2.6699100788075123	0.0	9.346966906828063	2.4810651886238038	0.0	9.328811507506547	2.28287770371094	0.0	9.461855938434473	2.1837446424673015	0.0	9.694273205474703	2.489037031055133	0.0	9.731387125454747	2.289965032585164	0.0	9.6194677526643	2.173148304323677	0.0
315	12.6	9.529371776616683	2.0526876569923624	0.0	9.429662796592806	2.041952759864363	0.0	9.40811871014068	1.6846964249135403	0.0	9.40862357713598	1.319887817999634	0.0	9.38544295212368	1.2310709438796281	0.0	9.336501206334209	1.2370648896986374	0.0	9.42172909456184	1.2596551203748494	0.0	9.62694605908104	2.0431080504497756	0.0	9.677480264871479	1.687721940787458	0.0	9.722784051197133	1.3261504089458427	0.0	9.752837238972516	1.2436889356116887	0.0	9.788033551477094	1.249438828623772	0.0	9.685943674982735	1.2639833148385609	0.0	9.514759005922661	2.5693651475228956	0.0	9.496724501598663	2.7947464207187567	0.0	9.496174892180338	2.670136082609777	0.0	9.346618116619531	2.480210625173635	0.0	9.328566989403473	2.2804156663522654	0.0	9.464724494048559	2.1857818207530317	0.0	9.692488482930473	2.489866412286302	0.0	9.731991766832316	2.2885861420012743	0.0	9.614251238039937	2.174353024606408	0.0
316	12.64	9.528385869937411	2.053658917454045	0.0	9.429274270794055	2.0425702782585096	0.0	9.406459072222654	1.6858475478263162	0.0	9.409745457191423	1.320157712580554	0.0	9.388978025933099	1.2335637608923258	0.0	9.338402383912976	1.2412062368454682	0.0	9.423979020279706	1.2618233599805087	0.0	9.62465082893361	2.0436257226856096	0.0	9.676909938890509	1.6872754361179365	0.0	9.72215399490007	1.327538075876799	0.0	9.752754558704195	1.2511024457039113	0.0	9.786833036753615	1.2575107004127475	0.0	9.689481433745184	1.2698995907550237	0.0	9.513812580834466	2.5709626356904356	0.0	9.49611311942147	2.793989303473276	0.0	9.495740504179683	2.669492482494908	0.0	9.347002665312157	2.4777646127004425	0.0	9.328843553459958	2.277343138293062	0.0	9.465350363950332	2.1866381851463887	0.0	9.689893872033437	2.4908759378583487	0.0	9.731689760764237	2.2860241851360117	0.0	9.608865995438476	2.1736352036009623	0.0
